# xmcd
#
# Track frame offsets:
#	150
#	16670
#	33695
#	51595
#	66880
#	83485
#	95867
#	110360
#	126940
#	150265
#	167615
#	184227
#	201947
#	221247
#	237507
#	272362
#
# Disc length: 3643 seconds
#
# Revision: 1
# Processed by: cddbd v1.5.1PL2 Copyright (c) Steve Scherf et al.
# Submitted via: audiograbber 1.83.01
#
DISCID=e00e3910
DTITLE=Sound Choice - SC8733
DYEAR=1900
DGENRE=Karaoke
TTITLE0=Phil Vassar - That's When I Love You
TTITLE1=Loretta Lynn - Table For Two
TTITLE2=Rascal Flatts - I'm Moving On
TTITLE3=Blake Shelton - All Over Me
TTITLE4=Brad Paisley Bill Anderson George Jones Buck Owens  - Too Country
TTITLE5=Diamond Rio  - That's Just That
TTITLE6=Cyndi Thompson  - I Always Liked That Best
TTITLE7=Charlie Daniels Band, The  - This Aint No Rag It's A Flag
TTITLE8=Garth Brooks  - Wrapped Up In You
TTITLE9=Wild Horses  - I Will Survive
TTITLE10=Tammy Cochran  - I Cry
TTITLE11=Kenny Rogers Homeland - Homeland
TTITLE12=Martina McBride  - Blessed
TTITLE13=Lee Ann Womack  - Does My Ring Burn Your Finger
TTITLE14=Hank Williams Jr  - America Will Survive (Country Freedom Concert)
TTITLE15=Data Track - Data Track
EXTD=
EXTT0=
EXTT1=
EXTT2=
EXTT3=
EXTT4=
EXTT5=
EXTT6=
EXTT7=
EXTT8=
EXTT9=
EXTT10=
EXTT11=
EXTT12=
EXTT13=
EXTT14=
EXTT15=
PLAYORDER=
